<svg id="Layer_1" data-name="Layer 1" xmlns="http://www.w3.org/2000/svg" viewBox="0 0 760.9 746.74"><defs><style>.cls-1{fill:#0A6BBB;}</style></defs><title>coa-pattern</title><polygon class="cls-1" points="376.82 366.93 376.27 367.55 377.04 367.87 377.07 367.37 376.82 366.93"/><polygon class="cls-1" points="379.18 369.98 378.69 369.91 378.83 370.74 379.55 370.33 379.18 369.98"/><polygon class="cls-1" points="377.81 364.09 377.99 363.62 377.15 363.57 377.39 364.38 377.81 364.09"/><path class="cls-1" d="M385.95,368.17l-.48-.68s-.32.45-.47.68l.48.14Z" transform="translate(-4.65 -5.71)"/><polygon class="cls-1" points="383.86 364.06 384.28 364.34 384.51 363.54 383.67 363.59 383.86 364.06"/><polygon class="cls-1" points="374.86 366.8 376.11 365.43 375.55 363.65 372.3 364.58 374.86 366.8"/><polygon class="cls-1" points="377.07 369.53 375.34 368.85 374.02 371.99 377.36 371.37 377.07 369.53"/><polygon class="cls-1" points="382.49 372.26 380.87 371.34 379.26 372.28 380.89 375.25 382.49 372.26"/><polygon class="cls-1" points="376.86 362 378.73 362.12 379.77 360.59 377 358.6 376.86 362"/><polygon class="cls-1" points="381.87 360.58 382.93 362.1 384.79 361.96 384.62 358.57 381.87 360.58"/><polygon class="cls-1" points="385.57 365.39 386.84 366.74 389.38 364.5 386.11 363.6 385.57 365.39"/><polygon class="cls-1" points="384.66 369.49 384.38 371.34 387.72 371.93 386.38 368.8 384.66 369.49"/><polygon class="cls-1" points="384.67 367.83 385.43 367.51 384.87 366.9 384.63 367.33 384.67 367.83"/><polygon class="cls-1" points="382.17 370.31 382.91 370.72 383.04 369.89 382.55 369.97 382.17 370.31"/><polygon class="cls-1" points="371.54 371.93 372.43 368.67 370.04 366.24 365.53 370.45 371.54 371.93"/><polygon class="cls-1" points="377.39 374.52 374.02 374.86 374.49 381.05 379.4 377.27 377.39 374.52"/><polygon class="cls-1" points="388.47 374.45 385.07 374.3 383.25 377.15 388.36 380.63 388.47 374.45"/><polygon class="cls-1" points="370.79 362.46 373.92 361.12 374.33 357.76 368.2 356.84 370.79 362.46"/><polygon class="cls-1" points="377.74 355.99 380.72 357.59 383.63 355.8 380.53 350.44 377.74 355.99"/><polygon class="cls-1" points="387.75 360.72 390.93 361.87 393.19 356.11 387.14 357.37 387.75 360.72"/><polygon class="cls-1" points="389.68 368.14 390.78 371.37 396.68 369.54 391.9 365.59 389.68 368.14"/><polygon class="cls-1" points="369.3 383.51 368.16 377.32 362.18 375.18 358.02 385.91 369.3 383.51"/><polygon class="cls-1" points="381.24 383.1 375.87 386.42 381.67 396.43 386.85 386.09 381.24 383.1"/><polygon class="cls-1" points="399.78 374 393.96 376.5 393.21 382.77 404.62 384.46 399.78 374"/><polygon class="cls-1" points="360.37 368.23 364.53 363.42 362.5 357.45 351.45 360.88 360.37 368.23"/><polygon class="cls-1" points="366.78 351.72 373.09 351.98 376.52 346.62 366.95 340.14 366.78 351.72"/><polygon class="cls-1" points="387.43 351.52 393.7 350.87 392.82 339.37 383.69 346.4 387.43 351.52"/><polygon class="cls-1" points="396.7 362.42 401.17 366.95 409.59 359.08 398.35 356.34 396.7 362.42"/><polygon class="cls-1" points="350.45 384.29 353.37 373.61 345.54 365.64 330.75 379.45 350.45 384.29"/><polygon class="cls-1" points="369.66 392.79 358.61 393.92 360.13 414.21 376.25 401.81 369.66 392.79"/><polygon class="cls-1" points="405.98 392.57 394.84 392.08 388.86 401.42 405.63 412.84 405.98 392.57"/><polygon class="cls-1" points="348 353.25 358.27 348.83 359.63 337.81 339.5 334.79 348 353.25"/><polygon class="cls-1" points="370.79 332.02 380.58 337.27 390.11 331.41 379.93 313.82 370.79 332.02"/><polygon class="cls-1" points="403.64 347.53 414.07 351.3 421.48 332.41 401.64 336.55 403.64 347.53"/><polygon class="cls-1" points="409.97 371.88 413.57 382.47 432.93 376.46 417.24 363.52 409.97 371.88"/><polygon class="cls-1" points="348.47 413.86 345.2 396.2 328.15 390.1 316.3 420.71 348.47 413.86"/><polygon class="cls-1" points="382.52 412.71 367.19 422.16 383.74 450.7 398.51 421.23 382.52 412.71"/><polygon class="cls-1" points="435.39 386.74 418.78 393.88 416.65 411.75 449.19 416.58 435.39 386.74"/><polygon class="cls-1" points="322.99 370.28 334.86 356.58 329.06 339.54 297.55 349.34 322.99 370.28"/><polygon class="cls-1" points="341.27 323.19 359.26 323.95 369.05 308.66 341.77 290.18 341.27 323.19"/><polygon class="cls-1" points="400.18 322.64 418.06 320.78 415.55 287.97 389.5 308.02 400.18 322.64"/><polygon class="cls-1" points="426.61 353.71 439.34 366.64 463.36 344.2 431.32 336.38 426.61 353.71"/><polygon class="cls-1" points="302.07 415.23 309.48 388.15 289.64 367.95 252.13 402.97 302.07 415.23"/><polygon class="cls-1" points="350.78 436.78 322.76 439.65 326.64 491.08 367.49 459.65 350.78 436.78"/><polygon class="cls-1" points="442.86 436.22 414.63 434.97 399.46 458.67 441.98 487.61 442.86 436.22"/><polygon class="cls-1" points="295.86 336.54 321.9 325.33 325.35 297.4 274.31 289.75 295.86 336.54"/><polygon class="cls-1" points="353.65 282.71 378.46 296.03 402.63 281.17 376.83 236.59 353.65 282.71"/><polygon class="cls-1" points="436.94 322.03 463.38 331.59 482.17 283.7 431.86 294.19 436.94 322.03"/><polygon class="cls-1" points="452.98 383.76 462.11 410.62 511.19 395.38 471.42 362.57 452.98 383.76"/><polygon class="cls-1" points="305.69 477.21 298.02 435.88 258.1 421.58 230.36 493.25 305.69 477.21"/><polygon class="cls-1" points="385.42 474.51 349.5 496.65 388.27 563.48 422.86 494.46 385.42 474.51"/><polygon class="cls-1" points="509.2 413.71 470.32 430.44 465.32 472.28 541.52 483.58 509.2 413.71"/><polygon class="cls-1" points="246 375.17 273.81 343.08 260.24 303.18 186.44 326.14 246 375.17"/><polygon class="cls-1" points="288.83 264.91 330.96 266.69 353.86 230.89 290 187.61 288.83 264.91"/><polygon class="cls-1" points="426.75 263.62 468.63 259.27 462.75 182.45 401.76 229.4 426.75 263.62"/><polygon class="cls-1" points="488.64 336.38 518.46 366.65 574.7 314.11 499.68 295.8 488.64 336.38"/><polygon class="cls-1" points="216.1 463.32 231.54 406.91 190.2 364.83 112.05 437.78 216.1 463.32"/><polygon class="cls-1" points="317.59 508.23 259.2 514.2 267.28 621.37 352.39 555.89 317.59 508.23"/><polygon class="cls-1" points="509.43 507.05 450.61 504.46 419.01 553.83 507.58 614.13 509.43 507.05"/><polygon class="cls-1" points="203.16 299.38 257.42 276.04 264.59 217.84 158.26 201.89 203.16 299.38"/><polygon class="cls-1" points="323.57 187.23 375.25 214.98 425.62 184.01 371.85 91.13 323.57 187.23"/><polygon class="cls-1" points="497.09 269.15 552.17 289.07 591.33 189.3 486.51 211.15 497.09 269.15"/><polygon class="cls-1" points="530.52 397.75 549.53 453.73 651.78 421.98 568.92 353.62 530.52 397.75"/><polygon class="cls-1" points="233.7 577.68 218.69 496.67 140.44 468.65 86.07 609.11 233.7 577.68"/><polygon class="cls-1" points="389.95 572.38 319.57 615.77 395.55 746.74 463.33 611.48 389.95 572.38"/><polygon class="cls-1" points="632.54 453.23 556.34 486.02 546.55 568.01 695.88 590.16 632.54 453.23"/><polygon class="cls-1" points="116.74 377.69 171.23 314.81 144.63 236.61 0 281.6 116.74 377.69"/><polygon class="cls-1" points="200.66 161.61 283.22 165.1 328.11 94.94 202.95 10.12 200.66 161.61"/><polygon class="cls-1" points="470.97 159.08 553.05 150.56 541.51 0 421.98 92 470.97 159.08"/><polygon class="cls-1" points="592.25 301.68 650.68 361 760.9 258.02 613.88 222.14 592.25 301.68"/></svg>